<svg width="41" height="42" viewBox="0 0 41 42" fill="none" xmlns="http://www.w3.org/2000/svg">
<path d="M28.5713 21.8126C28.5707 20.5009 27.507 19.438 26.1953 19.4385C24.8836 19.439 23.8207 20.5028 23.8213 21.8145C23.8213 21.8145 23.8222 24.2041 26.1972 24.2032C28.5722 24.2022 28.5713 21.8126 28.5713 21.8126Z" fill="#FF6633"/>
<path d="M15.5093 22.6817C15.509 22.0258 14.9771 21.4944 14.3213 21.4946C13.6655 21.4949 13.134 22.0268 13.1343 22.6826C13.1343 22.6826 13.1347 23.8701 14.3222 23.8696C15.5097 23.8692 15.5093 22.6817 15.5093 22.6817Z" fill="#FF6633"/>
<path fill-rule="evenodd" clip-rule="evenodd" d="M3.95835 23.8744C3.95816 23.3974 4.34467 23.0106 4.82164 23.0104L35.6966 22.9982C36.1736 22.998 36.5604 23.3845 36.5606 23.8615L36.5622 27.9637C36.5641 32.7335 32.699 36.6016 27.9293 36.6035L12.5998 36.6096C7.83003 36.6115 3.96186 32.7464 3.95997 27.9767L3.95835 23.8744ZM5.68596 24.7373L5.68725 27.976C5.68876 31.7918 8.78329 34.8838 12.5991 34.8823L27.9286 34.8763C31.7444 34.8747 34.8365 31.7802 34.835 27.9644L34.8337 24.7258L5.68596 24.7373Z" fill="#86868B"/>
<path d="M20.2214 15.9189C19.5475 16.5207 18.6109 17.357 16.8529 17.6873C15.145 18.0083 14.2743 17.8522 13.5885 17.6746C13.5388 17.6618 13.4934 17.6499 13.4516 17.6389L13.4516 17.6389C13.2149 17.5769 13.0906 17.5443 12.9384 17.5345C12.7888 17.5248 12.5789 17.5388 12.2168 17.6597C11.7941 17.8007 11.591 18.1173 11.4579 18.8506C11.4142 19.0918 11.388 19.3131 11.3592 19.5564L11.3592 19.5564C11.3411 19.7087 11.3221 19.8696 11.2971 20.0494C11.2402 20.4581 11.1524 20.9509 10.9364 21.3833C10.7054 21.8457 10.572 22.4725 10.502 23.0341C10.4682 23.3054 10.4513 23.5433 10.4429 23.7123C10.4388 23.7965 10.4367 23.8629 10.4357 23.9068C10.4353 23.9288 10.435 23.9451 10.4349 23.9551L10.4348 23.9655C10.4349 24.4423 9.26501 24.1686 8.78812 24.1687C8.73913 24.1688 8.69936 24.1717 8.66742 24.1764C8.45328 24.2079 8.59162 24.3197 8.66742 24.1764C8.69038 24.133 8.7076 24.0662 8.70756 23.9667L8.70756 23.9632L8.70758 23.957L8.70774 23.937C8.70792 23.9205 8.70825 23.8973 8.7089 23.8682C8.7102 23.8101 8.71275 23.728 8.71778 23.6267C8.7278 23.4246 8.74781 23.143 8.78799 22.8205C8.86599 22.1945 9.02884 21.3368 9.39116 20.6115C9.47179 20.45 9.53212 20.2006 9.58627 19.8114C9.6014 19.7026 9.61688 19.574 9.63357 19.4353C9.66763 19.1522 9.70675 18.827 9.7584 18.5423C9.9216 17.6427 10.3116 16.4746 11.6699 16.0212C12.1983 15.8449 12.6337 15.784 13.0494 15.8108C13.3828 15.8322 13.6854 15.913 13.9167 15.9748L13.9168 15.9748C13.9535 15.9846 13.9884 15.994 14.0213 16.0025C14.4777 16.1206 15.0915 16.2608 16.5339 15.9898C17.8169 15.7487 18.4528 15.1817 19.0873 14.6159L19.1493 14.5606C19.4704 14.2747 19.876 13.9149 20.3872 13.7022C20.9447 13.4701 21.5546 13.4367 22.2615 13.6277C22.9388 13.8108 23.444 14.1072 23.8282 14.4892C24.2028 14.8617 24.4193 15.2744 24.5742 15.6021C24.6035 15.664 24.6307 15.7219 24.6561 15.776L24.6562 15.7762C24.9307 16.3604 25.0011 16.5103 25.2963 16.6156C25.4351 16.6651 25.5847 16.6677 25.8218 16.5959C26.0266 16.534 26.2202 16.4442 26.4791 16.3243L26.4791 16.3242L26.4793 16.3242C26.5728 16.2808 26.6749 16.2335 26.789 16.1821C27.5971 15.8186 28.7152 15.4123 30.1129 16.047C30.8343 16.3746 31.2907 16.878 31.5226 17.4955C31.7375 18.0677 31.7314 18.6676 31.696 19.152C31.6809 19.3576 31.6581 19.5664 31.6375 19.7555L31.6375 19.7557L31.6256 19.8651C31.6013 20.0908 31.5824 20.287 31.5762 20.4678C31.5634 20.8464 31.6142 21.0255 31.6737 21.119C32.2261 21.9863 32.2338 22.8269 32.0907 23.4428C32.0209 23.7433 31.9166 23.9878 31.8285 24.1596C31.7842 24.2462 31.7429 24.3162 31.7104 24.368C31.6941 24.3939 31.6798 24.4154 31.6683 24.4322L31.6532 24.454L31.6473 24.4622L31.6448 24.4657L31.6431 24.468C31.6431 24.468 31.6426 24.4687 30.9782 23.9814L31.6426 24.4687C30.9783 24.3682 31.1494 24.7146 30.7648 24.4325C30.3835 24.1528 29.9691 23.8409 30.2427 23.457L30.2484 23.4481C30.2569 23.4345 30.2726 23.4085 30.2914 23.3717C30.3298 23.2969 30.3771 23.1862 30.4083 23.0519C30.4672 22.7983 30.4744 22.4514 30.2168 22.0469C29.8713 21.5044 29.8336 20.8912 29.85 20.409C29.8585 20.1594 29.8837 19.9082 29.9082 19.6804L29.9213 19.5593C29.9419 19.3706 29.9607 19.1981 29.9733 19.0259C30.0044 18.6011 29.9841 18.3118 29.9056 18.1027C29.8441 17.939 29.7279 17.7692 29.3988 17.6198C28.6957 17.3005 28.1725 17.4537 27.4977 17.7573C27.4326 17.7866 27.3618 17.8196 27.2865 17.8546L27.2865 17.8546C27.0019 17.987 26.6548 18.1486 26.3218 18.2493C25.8591 18.3892 25.3107 18.4546 24.716 18.2425C23.6954 17.8784 23.3192 17.029 23.0906 16.5127C23.0628 16.4499 23.0371 16.392 23.0128 16.3406C22.8829 16.0658 22.769 15.8719 22.6104 15.7141C22.4614 15.5659 22.2303 15.4085 21.8108 15.2952C21.421 15.1898 21.2084 15.2313 21.0508 15.2969C20.8467 15.3818 20.6444 15.5422 20.2978 15.8508L20.2214 15.9189Z" fill="#86868B"/>
<path d="M22.6313 16.7413C22.6321 18.7088 21.0377 20.3045 19.0702 20.3052C17.1027 20.306 15.5071 18.7117 15.5063 16.7441C15.5055 14.7766 17.0999 13.181 19.0674 13.1802C21.0349 13.1795 22.6305 14.7738 22.6313 16.7413Z" fill="#FF6633"/>
<path fill-rule="evenodd" clip-rule="evenodd" d="M3.24326 11.2269C3.66979 11.0134 4.18862 11.1862 4.4021 11.6127L10.3443 23.4853C10.5578 23.9119 10.3851 24.4307 9.95853 24.6442C9.532 24.8577 9.01317 24.6849 8.79969 24.2584L2.85749 12.3858C2.64401 11.9592 2.81672 11.4404 3.24326 11.2269Z" fill="#86868B"/>
<path fill-rule="evenodd" clip-rule="evenodd" d="M37.2657 11.2135C37.6924 11.4267 37.8655 11.9454 37.6524 12.3721L31.7196 24.2494C31.5065 24.6761 30.9878 24.8492 30.5611 24.6361C30.1344 24.423 29.9612 23.9043 30.1744 23.4776L36.1072 11.6002C36.3203 11.1735 36.839 11.0004 37.2657 11.2135Z" fill="#86868B"/>
</svg>
