<svg width="41" height="42" viewBox="0 0 41 42" fill="none" xmlns="http://www.w3.org/2000/svg">
<path fill-rule="evenodd" clip-rule="evenodd" d="M11.8003 14.9829C11.9641 14.7998 12.1981 14.6951 12.4437 14.695L29.0687 14.6884C29.3144 14.6883 29.5484 14.7928 29.7124 14.9758C29.8763 15.1588 29.9545 15.4029 29.9275 15.6471L27.5609 37.023C27.5125 37.4604 27.1429 37.7914 26.7029 37.7916L14.8279 37.7963C14.3878 37.7965 14.018 37.4657 13.9692 37.0284L11.5857 15.6543C11.5585 15.4102 11.6366 15.166 11.8003 14.9829ZM13.4093 16.4219L15.6002 36.0687L25.9292 36.0646L28.1045 16.416L13.4093 16.4219Z" fill="#86868B"/>
<path fill-rule="evenodd" clip-rule="evenodd" d="M9.20249 9.62243C9.2023 9.14545 9.58881 8.75864 10.0658 8.75845L31.4408 8.74998C31.9178 8.74979 32.3046 9.1363 32.3048 9.61328L32.3071 15.5508C32.3073 16.0278 31.9208 16.4146 31.4438 16.4148L10.0688 16.4232C9.59185 16.4234 9.20503 16.0369 9.20484 15.5599L9.20249 9.62243ZM10.9301 10.4854L10.9318 14.6956L30.5795 14.6878L30.5778 10.4776L10.9301 10.4854Z" fill="#86868B"/>
<path d="M27.8847 25.052C27.8862 28.987 24.6975 32.1782 20.7625 32.1798C16.8274 32.1814 13.6362 28.9926 13.6347 25.0576C13.6331 21.1226 16.8218 17.9314 20.7568 17.9298C24.6919 17.9282 27.8831 21.1169 27.8847 25.052Z" fill="#FF6633"/>
<path fill-rule="evenodd" clip-rule="evenodd" d="M11.6014 3.4737C11.7169 3.01093 12.1857 2.7294 12.6485 2.8449L17.399 4.03052C17.6436 4.09157 17.8493 4.25646 17.9622 4.48192L20.339 9.23098C20.5525 9.65751 20.3798 10.1763 19.9533 10.3898C19.5267 10.6033 19.0079 10.4306 18.7944 10.004L16.5953 5.6102L12.2302 4.52077C11.7675 4.40527 11.4859 3.93648 11.6014 3.4737Z" fill="#86868B"/>
</svg>
