<svg width="41" height="42" viewBox="0 0 41 42" fill="none" xmlns="http://www.w3.org/2000/svg">
<path fill-rule="evenodd" clip-rule="evenodd" d="M12.3012 10.073C10.2911 11.2801 9.2435 12.8268 9.24411 14.3717C9.24472 15.9167 10.2936 17.4626 12.3046 18.6681C14.2985 19.8633 17.1084 20.63 20.2579 20.6287C23.4075 20.6275 26.2168 19.8586 28.2097 18.6618C30.2198 17.4547 31.2674 15.908 31.2668 14.363C31.2662 12.818 30.2174 11.2722 28.2063 10.0667C26.2125 8.87141 23.4026 8.10477 20.253 8.10602C17.1034 8.10726 14.2941 8.87613 12.3012 10.073ZM11.412 8.59218C13.7159 7.20856 16.8435 6.38009 20.2523 6.37875C23.6611 6.3774 26.7893 7.20339 29.0944 8.58518C31.3823 9.95667 32.9932 11.9723 32.9941 14.3623C32.9951 16.7524 31.3858 18.7693 29.099 20.1426C26.795 21.5262 23.6674 22.3547 20.2586 22.356C16.8498 22.3574 13.7216 21.5314 11.4165 20.1496C9.12866 18.7781 7.51778 16.7625 7.51683 14.3724C7.51589 11.9824 9.12517 9.96548 11.412 8.59218Z" fill="#86868B"/>
<path d="M27.3803 14.3645C27.3811 16.332 24.1918 17.9282 20.2567 17.9298C16.3217 17.9314 13.1311 16.3376 13.1303 14.3701C13.1295 12.4026 16.3189 10.8064 20.2539 10.8048C24.1889 10.8032 27.3795 12.397 27.3803 14.3645Z" fill="#FF6633"/>
<path fill-rule="evenodd" clip-rule="evenodd" d="M7.5166 14.3722C7.5166 14.3721 7.5166 14.3721 8.38024 14.3717C9.24387 14.3714 9.24387 14.3714 9.24387 14.3715L9.24952 28.6214C9.25013 30.1664 10.299 31.7122 12.31 32.9177C14.3039 34.113 17.1138 34.8796 20.2634 34.8784C23.4129 34.8771 26.2222 34.1083 28.2151 32.9114C30.2252 31.7043 31.2729 30.1576 31.2722 28.6127L31.2666 14.3627L32.9939 14.362L32.9995 28.612C33.0005 31.002 31.3912 33.0189 29.1044 34.3922C26.8004 35.7758 23.6728 36.6043 20.264 36.6057C16.8552 36.607 13.727 35.781 11.4219 34.3992C9.13407 33.0277 7.52319 31.0121 7.52224 28.6221L7.5166 14.3722Z" fill="#86868B"/>
</svg>
