<svg width="41" height="42" viewBox="0 0 41 42" fill="none" xmlns="http://www.w3.org/2000/svg">
<path fill-rule="evenodd" clip-rule="evenodd" d="M21.7719 7.35028C20.0802 8.34632 19.2422 9.59681 19.2427 10.8053C19.2431 12.0139 20.0821 13.2637 21.7747 14.2584C23.4472 15.2413 25.8141 15.8766 28.4748 15.8755C31.1354 15.8745 33.5018 15.2374 35.1736 14.2531C36.8654 13.257 37.7034 12.0066 37.7029 10.798C37.7024 9.5895 36.8634 8.33968 35.1709 7.34498C33.4983 6.36202 31.1314 5.72676 28.4708 5.72782C25.8101 5.72887 23.4437 6.366 21.7719 7.35028ZM20.8956 5.86184C22.8762 4.69572 25.5561 4.0017 28.4701 4.00054C31.384 3.99939 34.0645 4.69129 36.0461 5.85584C38.0076 7.00864 39.4293 8.72668 39.4302 10.7973C39.431 12.868 38.0106 14.5872 36.05 15.7415C34.0694 16.9076 31.3894 17.6017 28.4755 17.6028C25.5615 17.604 22.881 16.9121 20.8995 15.7475C18.9379 14.5947 17.5162 12.8767 17.5154 10.806C17.5146 8.73536 18.9349 7.0162 20.8956 5.86184Z" fill="#86868B"/>
<path d="M33.8164 10.7995C33.8169 12.1112 31.4248 13.1754 28.4736 13.1766C25.5223 13.1778 23.1294 12.1154 23.1289 10.8037C23.1284 9.49203 25.5204 8.42776 28.4717 8.4266C31.423 8.42543 33.8159 9.4878 33.8164 10.7995Z" fill="#FF6633"/>
<path fill-rule="evenodd" clip-rule="evenodd" d="M17.5156 10.8058C17.5156 10.8057 17.5156 10.8057 18.3793 10.8053C19.2429 10.805 19.2429 10.805 19.2429 10.8051L19.2476 22.68C19.2481 23.8885 20.0871 25.1383 21.7796 26.133C23.4522 27.116 25.8191 27.7512 28.4797 27.7502C31.1404 27.7491 33.5068 27.112 35.1786 26.1277C36.8703 25.1317 37.7083 23.8812 37.7078 22.6727L37.7031 10.7977L39.4304 10.797L39.4351 22.672C39.4359 24.7426 38.0155 26.4618 36.0549 27.6162C34.0743 28.7823 31.3944 29.4763 28.4804 29.4775C25.5664 29.4786 22.8859 28.7867 20.9044 27.6222C18.9429 26.4694 17.5211 24.7513 17.5203 22.6807L17.5156 10.8058Z" fill="#86868B"/>
<path fill-rule="evenodd" clip-rule="evenodd" d="M5.06888 25.4229C5.52471 25.2825 6.00809 25.5382 6.14854 25.994L7.85342 31.5271C8.1903 32.6204 9.0466 33.476 10.1402 33.812L21.6226 37.3401C22.5276 37.6181 23.507 37.5126 24.332 37.0481L32.2148 32.6099C32.6304 32.3759 33.1571 32.5231 33.3911 32.9388C33.6251 33.3544 33.4778 33.881 33.0622 34.115L25.1794 38.5532C23.9419 39.2499 22.4727 39.4083 21.1152 38.9912L9.63286 35.4631C7.99249 34.9591 6.70805 33.6756 6.20273 32.0357L4.49785 26.5026C4.3574 26.0468 4.61306 25.5634 5.06888 25.4229Z" fill="#86868B"/>
<path d="M34.3678 35.2359C32.2358 32.7969 23.5109 30.0845 16.4693 28.6791C7.56232 26.9014 -1.34322 28.6862 2.81044 22.1533C6.80302 15.8737 30.8779 14.3019 35.5708 33.9378C35.9532 35.5379 34.8296 35.7642 34.3678 35.2359Z" fill="#FF6633"/>
<path fill-rule="evenodd" clip-rule="evenodd" d="M18.6737 17.7209C18.7895 18.1836 18.5084 18.6526 18.0457 18.7685C16.7942 19.0819 15.5751 19.9955 14.4872 21.3493C13.4059 22.6947 12.5076 24.4107 11.8839 26.1966C11.2597 27.984 10.9263 29.7965 10.9393 31.3229C10.9526 32.8861 11.3247 33.9728 11.9067 34.5263C12.2523 34.855 12.266 35.4017 11.9372 35.7473C11.6085 36.0929 11.0618 36.1066 10.7162 35.7778C9.62565 34.7405 9.22683 33.0669 9.21209 31.3377C9.19704 29.5716 9.57843 27.5595 10.2532 25.6272C10.9286 23.6933 11.9134 21.7945 13.1408 20.2673C14.3616 18.7482 15.8766 17.5311 17.6261 17.093C18.0888 16.9771 18.5578 17.2582 18.6737 17.7209ZM25.8132 20.1488C25.8982 20.6181 25.5867 21.0675 25.1173 21.1525C24.1622 21.3256 23.0598 21.9571 21.9619 22.9981C20.8751 24.0287 19.8511 25.4064 19.0461 26.9598C17.4185 30.1007 16.7846 33.7507 18.0406 36.5804C18.2341 37.0163 18.0376 37.5266 17.6016 37.7201C17.1656 37.9136 16.6554 37.7171 16.4619 37.2811C14.906 33.7759 15.7634 29.5403 17.5125 26.1651C18.3958 24.4605 19.5315 22.9225 20.7734 21.7448C22.0043 20.5776 23.3999 19.7083 24.8094 19.4529C25.2788 19.3679 25.7282 19.6794 25.8132 20.1488Z" fill="#86868B"/>
</svg>
