<svg width="41" height="42" viewBox="0 0 41 42" fill="none" xmlns="http://www.w3.org/2000/svg">
<path d="M17.4356 8.40739L17.4362 10.0235C17.4364 10.5208 16.1229 11.433 13.9397 11.4339C11.7565 11.4347 10.4422 10.5236 10.442 10.0263L10.4414 8.41016C11.3715 8.88634 12.5642 9.17595 13.9388 9.1754C15.3134 9.19558 16.5262 8.90502 17.4356 8.40739Z" fill="#FF6633"/>
<path d="M21.7382 12.3421L19.9189 12.3428L19.9217 19.2425L21.741 19.2418L21.7382 12.3421Z" fill="#86868B"/>
<path d="M13.9663 35.5083C9.59993 35.5101 6.16266 33.4809 6.16165 30.9116L6.1543 12.3467L7.9736 12.346L7.98095 30.9109C7.98146 32.1955 10.5291 33.6449 13.9655 33.6436L13.9663 35.5083Z" fill="#86868B"/>
<path d="M13.9584 16.9448C9.57186 16.9465 6.15482 14.9381 6.1538 12.3481C6.15321 10.877 7.26448 9.52974 9.18451 8.67946L9.91291 10.3989C8.70026 10.9381 7.97283 11.6636 7.97311 12.3681C7.97361 13.6527 10.5212 15.1021 13.9577 15.1007C17.3941 15.0994 19.9406 13.648 19.9401 12.3633C19.9398 11.6796 19.2118 10.934 17.9987 10.3957L18.7257 8.67569C20.6464 9.52444 21.7588 10.8708 21.7594 12.3419C21.7402 14.9319 18.3247 16.9431 13.9584 16.9448Z" fill="#86868B"/>
<path d="M19.2522 5.91865L19.2539 10.0419C19.2539 10.2077 19.2338 10.3734 19.1934 10.5392C18.8302 12.1555 16.6879 13.2959 13.959 13.297C11.4322 13.298 9.43055 12.325 8.82356 10.9163C8.70215 10.6262 8.6414 10.3362 8.64127 10.0254L8.63965 5.92285L10.4589 5.92213L10.4606 10.0454C10.4608 10.5427 11.7953 11.4538 13.9582 11.4529C16.1212 11.4521 17.455 10.5399 17.4548 10.0426L17.4532 5.91936L19.2522 5.91865Z" fill="#86868B"/>
<path d="M18.7848 4.53187C17.9758 3.3926 16.1562 2.64741 13.9326 2.64829C12.0122 2.64905 10.3953 3.20912 9.46579 4.10044C8.92021 4.61865 8.61724 5.24037 8.61751 5.92412C8.61792 6.96011 9.30555 7.83007 10.4378 8.4305C11.3679 8.90669 12.5606 9.19629 13.9352 9.19575C15.2896 9.19521 16.5023 8.90465 17.432 8.42773C18.5638 7.84713 19.2507 6.9559 19.2503 5.91991C19.2501 5.40192 19.0882 4.94614 18.7848 4.53187ZM13.9547 7.33096C11.7917 7.33181 10.4572 6.42067 10.457 5.92339C10.4568 5.42612 11.7906 4.51392 13.9536 4.51306C16.1165 4.51221 17.451 5.42335 17.4512 5.92062C17.4312 6.41791 16.1176 7.3301 13.9547 7.33096Z" fill="#86868B"/>
<path d="M17.4342 5.92083C17.4344 6.4181 16.1208 7.33029 13.9377 7.33116C11.7545 7.33202 10.4402 6.42087 10.44 5.9236C10.4398 5.42632 11.7736 4.51412 13.9366 4.51326C16.0995 4.51241 17.434 5.42355 17.4342 5.92083Z" fill="#FF6633"/>
<path d="M22.7143 18.3105C15.6797 18.3132 10.1624 21.4441 10.164 25.443C10.1655 29.442 15.6853 32.5685 22.72 32.5657C29.7546 32.5629 35.2719 29.432 35.2703 25.4331C35.2687 21.4342 29.7692 18.3077 22.7143 18.3105ZM32.3401 27.7342C30.5619 29.4753 26.8834 30.6993 22.7192 30.7009C18.555 30.7026 14.8755 29.4815 13.096 27.7211C12.3882 27.0376 11.9836 26.2504 11.9833 25.4423C11.9821 22.6037 16.8933 20.1775 22.7151 20.1752C28.5166 20.1729 33.4499 22.5745 33.451 25.4338C33.4513 26.2419 33.0474 27.0294 32.3401 27.7342Z" fill="#86868B"/>
<path d="M22.7182 40.1281C17.6443 40.1301 14.1869 38.2045 13.1951 34.869L11.2317 28.2809L12.9699 27.7415L14.9333 34.3296C15.662 36.8364 18.4926 38.265 22.6972 38.2633L22.6979 40.1281L22.7182 40.1281Z" fill="#86868B"/>
<path d="M22.7246 40.127L22.7239 38.2622C26.9285 38.2605 29.758 36.8298 30.4847 34.3224L32.4429 27.712L34.1815 28.25L32.2233 34.8397C31.2544 38.1967 27.7985 40.125 22.7246 40.127Z" fill="#86868B"/>
<path d="M32.3402 27.7338C30.562 29.4749 26.8835 30.6989 22.7193 30.7005C18.5551 30.7021 14.8756 29.4811 13.096 27.7207C14.3891 25.959 17.9866 24.3828 22.7168 24.381C27.4672 24.3998 31.066 25.9524 32.3402 27.7338Z" fill="#FF6633"/>
</svg>
