<svg width="41" height="42" viewBox="0 0 41 42" fill="none" xmlns="http://www.w3.org/2000/svg">
<path fill-rule="evenodd" clip-rule="evenodd" d="M7.11673 18.2979C7.57256 18.1575 8.05594 18.4132 8.19639 18.869L9.90127 24.4021C10.2381 25.4954 11.0944 26.351 12.188 26.687L23.6704 30.2151C24.5754 30.4931 25.5549 30.3876 26.3799 29.9231L34.2627 25.4849C34.6783 25.2509 35.2049 25.3981 35.4389 25.8138C35.6729 26.2294 35.5257 26.756 35.1101 26.99L27.2273 31.4282C25.9898 32.1249 24.5206 32.2833 23.1631 31.8662L11.6807 28.3381C10.0403 27.8341 8.7559 26.5506 8.25058 24.9107L6.5457 19.3776C6.40525 18.9218 6.66091 18.4384 7.11673 18.2979Z" fill="#86868B"/>
<path d="M36.4167 28.11C34.2846 25.6709 25.5597 22.9586 18.5181 21.5531C9.61115 19.7754 0.705608 21.5602 4.85927 15.0273C8.85185 8.74775 32.9267 7.17594 37.6196 26.8119C38.002 28.412 36.8785 28.6383 36.4167 28.11Z" fill="#FF6633"/>
<path fill-rule="evenodd" clip-rule="evenodd" d="M20.7215 10.5959C20.8374 11.0586 20.5562 11.5276 20.0936 11.6435C18.8421 11.9569 17.623 12.8705 16.535 14.2243C15.4538 15.5697 14.5554 17.2857 13.9318 19.0716C13.3076 20.859 12.9741 22.6715 12.9872 24.1979C13.0005 25.7611 13.3726 26.8478 13.9545 27.4013C14.3001 27.73 14.3138 28.2767 13.9851 28.6223C13.6563 28.9679 13.1097 28.9816 12.7641 28.6528C11.6735 27.6155 11.2747 25.9419 11.2599 24.2126C11.2449 22.4466 11.6263 20.4345 12.3011 18.5022C12.9764 16.5683 13.9613 14.6695 15.1887 13.1423C16.4094 11.6232 17.9245 10.4061 19.6739 9.96797C20.1366 9.8521 20.6056 10.1332 20.7215 10.5959ZM27.8611 13.0238C27.9461 13.4931 27.6345 13.9425 27.1652 14.0275C26.21 14.2006 25.1077 14.8321 24.0098 15.8731C22.923 16.9037 21.8989 18.2814 21.0939 19.8348C19.4663 22.9757 18.8325 26.6257 20.0885 29.4554C20.282 29.8913 20.0854 30.4016 19.6495 30.5951C19.2135 30.7886 18.7032 30.5921 18.5097 30.1561C16.9538 26.6509 17.8113 22.4153 19.5603 19.0401C20.4437 17.3355 21.5793 15.7975 22.8213 14.6198C24.0522 13.4526 25.4477 12.5833 26.8573 12.3279C27.3266 12.2429 27.776 12.5544 27.8611 13.0238Z" fill="#86868B"/>
</svg>
